<?xml version="1.0" encoding="utf-8"?>
<!-- Generator: Adobe Illustrator 19.0.0, SVG Export Plug-In . SVG Version: 6.00 Build 0)  -->
<svg version="1.1" id="Layer_1" xmlns="http://www.w3.org/2000/svg" xmlns:xlink="http://www.w3.org/1999/xlink" x="0px" y="0px"
	 viewBox="0 0 100 100" style="enable-background:new 0 0 100 100;" xml:space="preserve">
<style type="text/css">
	.st0{fill:#4163AE;}
</style>
<path id="XMLID_1460_" class="st0" d="M50,3.7C24.4,3.7,3.7,24.4,3.7,50S24.4,96.3,50,96.3S96.3,75.6,96.3,50S75.6,3.7,50,3.7z
	 M72.7,62.1c0.9,0.9,0.9,2.3,0,3.2l-7.4,7.4c-0.9,0.9-2.3,0.9-3.2,0L50,60.5L37.9,72.7c-0.9,0.9-2.3,0.9-3.2,0l-7.4-7.4
	c-0.9-0.9-0.9-2.3,0-3.2L39.5,50L27.3,37.9c-0.9-0.9-0.9-2.3,0-3.2l7.4-7.4c0.9-0.9,2.3-0.9,3.2,0L50,39.5l12.1-12.2
	c0.9-0.9,2.3-0.9,3.2,0l7.4,7.4c0.9,0.9,0.9,2.3,0,3.2L60.5,50L72.7,62.1z"/>
</svg>
