<?xml version="1.0" encoding="utf-8"?>
<!-- Generator: Adobe Illustrator 19.0.0, SVG Export Plug-In . SVG Version: 6.00 Build 0)  -->
<svg version="1.1" id="Layer_1" xmlns="http://www.w3.org/2000/svg" xmlns:xlink="http://www.w3.org/1999/xlink" x="0px" y="0px"
	 viewBox="0 0 16 20" style="enable-background:new 0 0 16 20;" xml:space="preserve">
<style type="text/css">
	.st0{fill:#FAA51A;}
</style>
<path id="XMLID_1425_" class="st0" d="M9,6.2V1.8H2.6c-0.4,0-0.8,0.3-0.8,0.8v14.9c0,0.4,0.3,0.8,0.8,0.8h10.8
	c0.4,0,0.8-0.3,0.8-0.8V6.9H9.8C9.4,6.9,9,6.6,9,6.2z M4.9,12H7V9.5C7,9.2,7.2,9,7.5,9h1C8.8,9,9,9.2,9,9.5V12h2.1
	c0.5,0,0.7,0.6,0.4,0.9L8.4,16c-0.2,0.2-0.6,0.2-0.8,0l-3.1-3.1C4.2,12.6,4.4,12,4.9,12z M13.9,5.2L10.8,2c-0.1-0.1-0.3-0.2-0.5-0.2
	H10v4.1h4.1V5.7C14.1,5.5,14.1,5.3,13.9,5.2z"/>
</svg>
