<?xml version="1.0" encoding="utf-8"?>
<!-- Generator: Adobe Illustrator 19.0.0, SVG Export Plug-In . SVG Version: 6.00 Build 0)  -->
<svg version="1.1" id="Layer_1" xmlns="http://www.w3.org/2000/svg" xmlns:xlink="http://www.w3.org/1999/xlink" x="0px" y="0px"
	 viewBox="240 -40 500 100" style="enable-background:new 240 -40 500 100;" xml:space="preserve">
<style type="text/css">
	.st0{enable-background:new    ;}
	.st1{fill:#333333;}
	.st2{fill:#CDCCCC;}
	.st3{fill:#4F4E4E;}
	.st4{fill:#3C3A3A;}
	.st5{fill:#161616;}
	.st6{fill:#191919;}
	.st7{fill:#2E2E2E;}
	.st8{fill:#343130;}
	.st9{fill:#191918;}
</style>
<g id="XMLID_1_">
	<g id="XMLID_1611_">
		<g class="st0">
			<path class="st1" d="M370.1,19.4c0.3,4.8,3.7,5.8,5.4,5.8c2.9,0,5.3-2.3,5.3-5.1c0-3.6-3-4.4-7.2-5.9c-2.5-0.8-8.1-2.7-8.1-8.7
				c0-6,5.1-9.2,10.1-9.2c4.1,0,9.3,2.3,9.7,8.9h-5c-0.3-1.7-1.1-4.5-4.8-4.5c-2.6,0-4.9,1.8-4.9,4.5c0,3.1,2.4,3.9,7.6,5.8
				c4,1.7,7.7,3.7,7.7,8.9s-3.5,9.7-10.4,9.7c-6.4,0-10.5-3.9-10.6-10.1H370.1z"/>
			<path class="st1" d="M387.7,5.3h4.7l5.6,17.8l5-16.5h3.8l5.1,16.5l5.5-17.8h4.7l-7.9,23.6h-4.3l-5.1-16.5l-5,16.5h-4.3L387.7,5.3
				z"/>
			<path class="st1" d="M448.5,28.9H444v-4.1c-1.7,3.2-5,4.8-8.8,4.8c-7.6,0-12.1-5.9-12.1-12.5c0-7.2,5.3-12.5,12.1-12.5
				c4.7,0,7.7,2.6,8.8,4.9V5.3h4.5V28.9z M427.6,17.2c0,3.5,2.5,8.2,8.3,8.2c3.6,0,6.2-2,7.3-4.7c0.5-1.1,0.8-2.3,0.8-3.5
				c0-1.2-0.2-2.4-0.7-3.5c-1.1-2.7-3.8-4.9-7.6-4.9C430.8,8.8,427.6,12.7,427.6,17.2L427.6,17.2z"/>
			<path class="st1" d="M454.5,5.3h4.3v3.5c1.3-2.8,3.8-4.1,7-4.2v4.5h-0.3c-4.3,0-6.5,2.3-6.5,7v12.8h-4.5V5.3z"/>
			<path class="st1" d="M469.3,5.3h4.3v3.3c1-2,3.7-4,7.2-4c2.2,0,4.4,0.7,6.1,2.5c0.6,0.6,1.3,1.9,1.5,2.3c0.4-0.7,0.9-1.5,1.7-2.3
				c1.5-1.5,3.7-2.5,6.3-2.5c2.2,0,4.6,0.6,6.3,2.4c2.1,2.1,2.6,4.4,2.6,8.9v13h-4.5V16.1c0-2-0.3-3.9-1.3-5.3c-0.8-1.2-2.1-2-4.2-2
				c-2,0-3.7,0.8-4.6,2.3c-1,1.5-1.1,2.8-1.1,4.8v13H485v-13c0-2-0.2-3.4-1-4.7c-0.9-1.4-2.3-2.3-4.5-2.3c-2.1,0-3.7,1-4.5,2.3
				c-0.9,1.3-1.3,2.9-1.3,4.8v12.9h-4.5V5.3z"/>
			<path class="st1" d="M549.1,5.9c-0.8-1.2-1.8-2.2-3-3c-1.9-1.3-4.1-2.2-6.8-2.2c-6.1,0-11.8,4.6-11.8,12.1
				c0,7.7,5.7,12.2,11.8,12.2c3,0,5.5-0.9,7.4-2.4c2-1.5,3.3-3.5,3.8-5.7h-13.9v-4.2h19.8c0,2-0.3,4.8-1.4,7.2
				c-3,6.4-9.6,9.6-15.7,9.6c-9.5,0-16.9-7.3-16.9-16.8c0-9.6,7.6-16.6,16.9-16.6c6.9,0,13.1,4.2,15.4,9.7H549.1z"/>
			<path class="st1" d="M584.9,28.9h-4.5v-4.1c-1.7,3.2-5,4.8-8.8,4.8c-7.6,0-12.1-5.9-12.1-12.5c0-7.2,5.3-12.5,12.1-12.5
				c4.7,0,7.7,2.6,8.8,4.9V5.3h4.5V28.9z M564.1,17.2c0,3.5,2.5,8.2,8.3,8.2c3.6,0,6.2-2,7.3-4.7c0.5-1.1,0.8-2.3,0.8-3.5
				c0-1.2-0.2-2.4-0.7-3.5c-1.1-2.7-3.8-4.9-7.6-4.9C567.3,8.8,564.1,12.7,564.1,17.2L564.1,17.2z"/>
			<path class="st1" d="M592.6,8.8h-4.3V5.3h4.3v-8.5h4.5v8.5h4.6v3.5h-4.6v20.1h-4.5V8.8z"/>
			<path class="st1" d="M606.8,18.6c0.2,4.8,4.4,7.2,7.9,7.2c3.2,0,5.5-1.5,6.8-4h4.7c-1.1,2.6-2.8,4.6-4.8,5.9c-2,1.3-4.3,2-6.7,2
				c-7.7,0-12.5-6.2-12.5-12.5c0-6.8,5.3-12.5,12.5-12.5c3.4,0,6.5,1.3,8.7,3.5c2.8,2.8,4,6.5,3.6,10.5H606.8z M622.5,15
				c-0.2-3.1-3.3-6.6-7.8-6.6c-4.6,0-7.6,3.3-7.8,6.6H622.5z"/>
			<path class="st1" d="M628.1,5.3h4.7l5.6,17.8l5-16.5h3.8l5.1,16.5l5.5-17.8h4.7l-7.9,23.6h-4.3l-5.1-16.5l-5,16.5H636L628.1,5.3z
				"/>
			<path class="st1" d="M688.9,28.9h-4.5v-4.1c-1.7,3.2-5,4.8-8.8,4.8c-7.6,0-12.1-5.9-12.1-12.5c0-7.2,5.3-12.5,12.1-12.5
				c4.7,0,7.7,2.6,8.8,4.9V5.3h4.5V28.9z M668,17.2c0,3.5,2.5,8.2,8.3,8.2c3.6,0,6.2-2,7.3-4.7c0.5-1.1,0.8-2.3,0.8-3.5
				c0-1.2-0.2-2.4-0.7-3.5c-1.1-2.7-3.8-4.9-7.6-4.9C671.2,8.8,668,12.7,668,17.2L668,17.2z"/>
			<path class="st1" d="M700.7,28.3l-9-22.9h4.9l6.5,17.3l6.6-17.3h4.9l-12.9,32.2h-4.8L700.7,28.3z"/>
		</g>
	</g>
	<g class="st0">
		<path class="st2" d="M692.9-12.1h0.4l2.5,8.7l2.4-8.7h0.3l2.4,8.7l2.5-8.7h0.4l-2.6,9.2h-0.5l-2.3-8.2l-2.3,8.2h-0.5L692.9-12.1z"
			/>
		<path class="st2" d="M703.9-6.1c0,2.2,1.8,3.1,3.1,3.1c1.2,0,2.3-0.6,2.8-1.7h0.4c-0.3,0.7-0.8,1.2-1.3,1.6
			c-0.6,0.3-1.2,0.5-1.9,0.5c-2.5,0-3.5-2-3.5-3.4c0-2,1.5-3.5,3.5-3.5c0.9,0,1.7,0.3,2.4,0.9c0.7,0.6,1.1,1.6,1.1,2.6H703.9z
			 M710.1-6.5c-0.1-1.6-1.6-2.9-3.1-2.9c-1.6,0-3,1.2-3.1,2.9H710.1z"/>
		<path class="st2" d="M711.9-12.1h0.3v2.6v1.7c0.5-1,1.5-1.9,3.1-1.9c2.1,0,3.5,1.6,3.5,3.5c0,1.8-1.3,3.5-3.5,3.5
			c-1.4,0-2.5-0.7-3.1-1.9v1.7h-0.3V-12.1z M718.4-6.2c0-1.8-1.4-3.1-3.1-3.1c-1.8,0-3.1,1.3-3.1,3.1c0,1.7,1.3,3.1,3.1,3.1
			C717.4-3,718.4-4.7,718.4-6.2L718.4-6.2z"/>
		<path class="st2" d="M720.5-10.2c0.1-1.4,1.2-2.1,2.2-2.1c1.1,0,2.2,0.7,2.2,2.1c0,0.8-0.4,1.5-1.3,2c1.6,0.5,1.9,1.9,1.9,2.6
			c0,1.7-1.2,2.9-2.8,2.9c-0.8,0-1.7-0.4-2.2-1c-0.4-0.5-0.6-1.1-0.6-1.8h0.4c0.1,1.7,1.4,2.5,2.5,2.5c1.5,0,2.4-1.1,2.4-2.5
			c0-1-0.7-2.5-2.6-2.5h-0.5v-0.3h0.5c1.9,0,2-1.4,2-1.8c0-1-0.7-1.8-1.7-1.8c-1.1,0-1.8,0.8-1.8,1.8H720.5z"/>
	</g>
	<g id="XMLID_2_">
		<polygon id="XMLID_1692_" class="st3" points="272.1,56.1 251.3,44.1 272.1,32.1 		"/>
		<polygon id="XMLID_1691_" class="st4" points="271.5,56.1 292.3,44.1 271.5,32.1 		"/>
		<polygon id="XMLID_1690_" class="st5" points="272.1,32.9 251.3,20.9 272.1,8.9 		"/>
		<polygon id="XMLID_1684_" class="st6" points="271.5,32.9 292.3,20.9 271.5,8.9 		"/>
		<polygon id="XMLID_1681_" class="st7" points="292.3,44.5 271.5,32.5 292.3,20.5 		"/>
		<polygon id="XMLID_1680_" class="st7" points="251.3,44.5 272.1,32.5 251.3,20.5 		"/>
		<polygon id="XMLID_1679_" class="st3" points="317.5,56.1 296.7,44.1 317.5,32.1 		"/>
		<polygon id="XMLID_1678_" class="st4" points="316.9,56.1 337.6,44.1 316.9,32.1 		"/>
		<polygon id="XMLID_1677_" class="st5" points="317.5,32.9 296.7,20.9 317.5,8.9 		"/>
		<polygon id="XMLID_1676_" class="st6" points="316.9,32.9 337.6,20.9 316.9,8.9 		"/>
		<polygon id="XMLID_1675_" class="st7" points="337.6,44.5 316.9,32.5 337.6,20.5 		"/>
		<polygon id="XMLID_1674_" class="st7" points="296.7,44.5 317.5,32.5 296.7,20.5 		"/>
		<polygon id="XMLID_1673_" class="st3" points="294.8,16.4 274,4.4 294.8,-7.6 		"/>
		<polygon id="XMLID_1672_" class="st4" points="294.2,16.4 315,4.4 294.2,-7.6 		"/>
		<polygon id="XMLID_1671_" class="st5" points="294.8,-6.8 274,-18.8 294.8,-30.8 		"/>
		<polygon id="XMLID_1670_" class="st7" points="274,4.8 294.8,-7.2 274,-19.2 		"/>
		<polygon id="XMLID_1669_" class="st8" points="304.7,-24.8 304.7,-12.8 294.3,-18.8 		"/>
		<polygon id="XMLID_1668_" class="st8" points="318.6,-32.7 318.6,-20.8 308.3,-26.7 		"/>
		<polygon id="XMLID_1667_" class="st8" points="328.7,-26.9 328.7,-14.9 318.3,-20.9 		"/>
		<polygon id="XMLID_1666_" class="st5" points="304.7,-13.2 304.7,-1.2 294.3,-7.2 		"/>
		<polygon id="XMLID_1665_" class="st7" points="314.8,-7.4 314.8,4.6 304.4,-1.4 		"/>
		<polygon id="XMLID_1663_" class="st5" points="318.3,-20.8 318.3,-32.7 328.7,-26.7 		"/>
		<polygon id="XMLID_1662_" class="st3" points="318.3,-9.1 318.3,-21.1 328.7,-15.1 		"/>
		<polygon id="XMLID_1661_" class="st9" points="304.4,-1.2 304.4,-13.2 314.8,-7.2 		"/>
		<polygon id="XMLID_1659_" class="st8" points="294.3,-7 294.3,-19 304.7,-13 		"/>
		<polygon id="XMLID_1658_" class="st6" points="294.3,-18.7 294.3,-30.7 304.7,-24.7 		"/>
	</g>
</g>
</svg>
