<?xml version="1.0" encoding="utf-8"?>
<!-- Generator: Adobe Illustrator 19.0.0, SVG Export Plug-In . SVG Version: 6.00 Build 0)  -->
<svg version="1.1" id="Layer_1" xmlns="http://www.w3.org/2000/svg" xmlns:xlink="http://www.w3.org/1999/xlink" x="0px" y="0px"
	 viewBox="0 0 500 100" style="enable-background:new 0 0 500 100;" xml:space="preserve">
<style type="text/css">
	.st0{fill:#333333;}
	.st1{font-family:'ITCAvantGardeStd-Md';}
	.st2{font-size:43.4249px;}
	.st3{fill:#CDCCCC;}
	.st4{font-family:'ITCAvantGardeStd-XLt';}
	.st5{font-size:12.4552px;}
	.st6{fill:#4F4E4E;}
	.st7{fill:#3C3A3A;}
	.st8{fill:#161616;}
	.st9{fill:#191919;}
	.st10{fill:#2E2E2E;}
	.st11{fill:#343130;}
	.st12{fill:#191918;}
</style>
<g id="XMLID_1_">
	<g id="XMLID_1611_">
		<text id="XMLID_1612_" transform="matrix(1 0 0 1 123.5655 68.9467)" class="st0 st1 st2">Swarm Gateway</text>
	</g>
	<text id="XMLID_1451_" transform="matrix(1 0 0 1 452.8003 37.1236)" class="st3 st4 st5">Web3</text>
	<g id="XMLID_2_">
		<polygon id="XMLID_1692_" class="st6" points="32.1,96.1 11.3,84.1 32.1,72.1 		"/>
		<polygon id="XMLID_1691_" class="st7" points="31.5,96.1 52.3,84.1 31.5,72.1 		"/>
		<polygon id="XMLID_1690_" class="st8" points="32.1,72.9 11.3,60.9 32.1,48.9 		"/>
		<polygon id="XMLID_1684_" class="st9" points="31.5,72.9 52.3,60.9 31.5,48.9 		"/>
		<polygon id="XMLID_1681_" class="st10" points="52.3,84.5 31.5,72.5 52.3,60.5 		"/>
		<polygon id="XMLID_1680_" class="st10" points="11.3,84.5 32.1,72.5 11.3,60.5 		"/>
		<polygon id="XMLID_1679_" class="st6" points="77.5,96.1 56.7,84.1 77.5,72.1 		"/>
		<polygon id="XMLID_1678_" class="st7" points="76.9,96.1 97.6,84.1 76.9,72.1 		"/>
		<polygon id="XMLID_1677_" class="st8" points="77.5,72.9 56.7,60.9 77.5,48.9 		"/>
		<polygon id="XMLID_1676_" class="st9" points="76.9,72.9 97.6,60.9 76.9,48.9 		"/>
		<polygon id="XMLID_1675_" class="st10" points="97.6,84.5 76.9,72.5 97.6,60.5 		"/>
		<polygon id="XMLID_1674_" class="st10" points="56.7,84.5 77.5,72.5 56.7,60.5 		"/>
		<polygon id="XMLID_1673_" class="st6" points="54.8,56.4 34,44.4 54.8,32.4 		"/>
		<polygon id="XMLID_1672_" class="st7" points="54.2,56.4 75,44.4 54.2,32.4 		"/>
		<polygon id="XMLID_1671_" class="st8" points="54.8,33.2 34,21.2 54.8,9.2 		"/>
		<polygon id="XMLID_1670_" class="st10" points="34,44.8 54.8,32.8 34,20.8 		"/>
		<polygon id="XMLID_1669_" class="st11" points="64.7,15.2 64.7,27.2 54.3,21.2 		"/>
		<polygon id="XMLID_1668_" class="st11" points="78.6,7.3 78.6,19.2 68.3,13.3 		"/>
		<polygon id="XMLID_1667_" class="st11" points="88.7,13.1 88.7,25.1 78.3,19.1 		"/>
		<polygon id="XMLID_1666_" class="st8" points="64.7,26.8 64.7,38.8 54.3,32.8 		"/>
		<polygon id="XMLID_1665_" class="st10" points="74.8,32.6 74.8,44.6 64.4,38.6 		"/>
		<polygon id="XMLID_1663_" class="st8" points="78.3,19.2 78.3,7.3 88.7,13.3 		"/>
		<polygon id="XMLID_1662_" class="st6" points="78.3,30.9 78.3,18.9 88.7,24.9 		"/>
		<polygon id="XMLID_1661_" class="st12" points="64.4,38.8 64.4,26.8 74.8,32.8 		"/>
		<polygon id="XMLID_1659_" class="st11" points="54.3,33 54.3,21 64.7,27 		"/>
		<polygon id="XMLID_1658_" class="st9" points="54.3,21.3 54.3,9.3 64.7,15.3 		"/>
	</g>
</g>
</svg>
