<?xml version="1.0" encoding="utf-8"?>
<!-- Generator: Adobe Illustrator 19.0.0, SVG Export Plug-In . SVG Version: 6.00 Build 0)  -->
<svg version="1.1" id="Layer_1" xmlns="http://www.w3.org/2000/svg" xmlns:xlink="http://www.w3.org/1999/xlink" x="0px" y="0px"
	 viewBox="0 0 468 142" style="enable-background:new 0 0 468 142;" xml:space="preserve">
<style type="text/css">
	.st0{opacity:0.8;}
	.st1{opacity:0.45;enable-background:new    ;}
	.st2{opacity:0.6;enable-background:new    ;}
	.st3{opacity:0.3;enable-background:new    ;}
	.st4{opacity:0.8;enable-background:new    ;}
</style>
<g id="XMLID_41_">
	<g id="XMLID_1_">
		<g id="Swarm_typeface">
			<g id="XMLID_42_" class="st0">
				<path id="XMLID_31_" d="M193.7,90c0,9.1-9.5,13.4-17.4,13.4c-8.5,0-17.8-3.3-17.8-13.2c0-1.7,0.1-3,2.2-3c1,0,1.4,1.3,1.4,2.1
					c0,8.5,6.8,10.6,14.2,10.6c5.8,0,13.8-2.8,13.8-9.8c0-13-31-5.3-31-20.3c0-8.6,9.6-10.8,16.5-10.8c8.1,0,17.1,3,17.1,12.6
					c0,1-1,1.7-1.9,1.7c-1.1,0-1.7-1-1.7-1.9c-0.3-2.1-0.6-3.5-2.1-5.2c-2.6-3-7.7-3.6-11.5-3.6c-4.5,0-12.9,1-12.9,7.1
					C162.7,80.6,193.7,73.2,193.7,90z"/>
				<path id="XMLID_30_" d="M264.4,60.9c0,0.8-13.2,37.6-14.5,40.9c-0.3,1-1,1.1-1.9,1.1c-0.9,0-1.6-0.1-1.9-1.1l-12.9-36l-12.9,36
					c-0.3,1-1,1.1-1.9,1.1c-0.9,0-1.7-0.1-1.9-1.1c-1.3-3.3-14.5-40.1-14.5-40.9c0-1,0.8-1.8,1.8-1.8c0.8,0,1.4,0.4,1.7,1.1l13,36.4
					l13-36.4c0.3-0.9,1-1.1,1.8-1.1c0.9,0,1.6,0.3,1.9,1.1l12.9,36.4l13-36.4c0.3-0.8,0.9-1.1,1.7-1.1
					C263.6,59.1,264.4,59.9,264.4,60.9z"/>
				<path id="XMLID_45_" d="M315.3,60.9v39.2c0,1-0.8,1.8-1.8,1.8c-1,0-1.8-0.8-1.8-1.8v-8.2c-3.6,6.6-10.3,11.2-18,11.2
					c-12.1,0-20.7-10.8-20.7-22.4s8.6-22.4,20.7-22.4c7.7,0,14.4,4.6,18,11.2v-8.6c0-0.9,0.8-1.8,1.8-1.8
					C314.5,59.1,315.3,60,315.3,60.9z M310.8,80.7c0-9.6-6.9-18.8-17.1-18.8c-10,0-17.1,9.1-17.1,18.8s7.1,18.8,17.1,18.8
					C303.9,99.5,310.8,90.3,310.8,80.7z"/>
				<path id="XMLID_27_" d="M352.4,61.3c0,1.1-0.6,1.8-1.7,1.9c-10.5,1.6-15.3,10.2-15.3,20.2v17.2c0,1-0.8,1.8-1.8,1.8
					c-1.1,0-1.8-0.8-1.8-1.8V61.4c0-1,0.8-1.8,1.8-1.8c1.1,0,1.8,0.8,1.8,1.8v8c3-5,8.9-9.8,15.1-9.8
					C351.3,59.6,352.4,60.2,352.4,61.3z"/>
				<path id="XMLID_2_" d="M430.6,77.7v23c0,1-0.9,1.8-1.8,1.8c-1,0-1.8-0.8-1.8-1.8v-23c0-7.7-4.4-15.3-13-15.3
					C403.1,62.4,399,74,399,83v17.8c0,1-0.9,1.8-1.8,1.8c-1,0-1.8-0.8-1.8-1.8v-23c0-7.7-4.4-15.3-13-15.3
					c-10.9,0-15.4,8.6-15.1,20.1c0,0.3,0.1,0.8,0,0.9v17.4c0,1-0.8,1.8-1.8,1.8c-1,0-1.8-0.8-1.8-1.8V61.4c0-1,0.8-1.8,1.8-1.8
					c1,0,1.8,0.8,1.8,1.8V68c3.1-5.5,8.6-9.1,15.1-9.1c7.3,0,13,4.6,15.3,11.5c3-6.7,8.8-11.5,16.2-11.5
					C424.5,58.8,430.6,68,430.6,77.7z"/>
			</g>
		</g>
	</g>
	<g id="Swarm_Icon">
		<polygon id="XMLID_26_" class="st1" points="121.3,27 121.3,39.4 110.2,33.2 110.2,20.7 		"/>
		<polygon id="XMLID_25_" class="st2" points="110.2,33.2 110.2,45.6 121.3,39.4 121.3,27 		"/>
		<polygon id="XMLID_24_" class="st3" points="37.4,102.7 59.5,115.1 81.6,102.7 59.5,90.2 		"/>
		<polygon id="XMLID_23_" class="st1" points="59.5,90.2 59.5,115.1 37.4,102.7 37.4,77.8 		"/>
		<polygon id="XMLID_22_" class="st1" points="81.6,77.8 81.6,102.7 59.5,90.2 59.5,65.4 		"/>
		<polygon id="XMLID_21_" class="st2" points="59.5,90.2 59.5,115.1 81.6,102.7 81.6,77.8 		"/>
		<polygon id="XMLID_20_" class="st2" points="37.4,77.8 37.4,102.7 59.5,90.2 59.5,65.4 		"/>
		<polygon id="XMLID_19_" class="st4" points="84,48.4 95,54.6 106.1,48.4 95,42.2 		"/>
		<polygon id="XMLID_18_" class="st4" points="37.4,77.8 59.5,90.2 81.6,77.8 59.5,65.4 		"/>
		<polygon id="XMLID_17_" class="st3" points="86.9,102.7 109,115.1 131.1,102.7 109,90.2 		"/>
		<polygon id="XMLID_16_" class="st1" points="109,90.2 109,115.1 86.9,102.7 86.9,77.8 		"/>
		<polygon id="XMLID_15_" class="st1" points="131.1,77.8 131.1,102.7 109,90.2 109,65.4 		"/>
		<polygon id="XMLID_14_" class="st2" points="109,90.2 109,115.1 131.1,102.7 131.1,77.8 		"/>
		<polygon id="XMLID_13_" class="st2" points="86.9,77.8 86.9,102.7 109,90.2 109,65.4 		"/>
		<polygon id="XMLID_12_" class="st4" points="86.9,77.8 109,90.2 131.1,77.8 109,65.4 		"/>
		<polygon id="XMLID_11_" class="st2" points="84,35.9 84,48.4 95,42.2 95,29.7 		"/>
		<polygon id="XMLID_10_" class="st3" points="61.9,60.8 84,73.2 106.1,60.8 84,48.4 		"/>
		<polygon id="XMLID_9_" class="st1" points="84,48.4 84,73.2 61.9,60.8 61.9,35.9 		"/>
		<polygon id="XMLID_8_" class="st2" points="61.9,35.9 61.9,60.8 84,48.4 84,23.5 		"/>
		<polygon id="XMLID_7_" class="st2" points="95,54.6 95,42.2 84,48.4 84,60.8 84,73.2 95,67 106.1,60.8 106.1,48.4 		"/>
		<g id="XMLID_5_">
			<polygon id="XMLID_6_" class="st1" points="95,29.7 84,23.5 84,48.4 106.1,60.8 106.1,48.4 95,42.2 			"/>
		</g>
		<polygon id="XMLID_4_" class="st4" points="84,23.5 95,29.7 84,35.9 84,48.4 61.9,35.9 		"/>
		<polygon id="XMLID_3_" class="st4" points="99.2,27 110.2,33.2 121.3,27 110.2,20.7 		"/>
	</g>
</g>
</svg>
