<?xml version="1.0" encoding="utf-8"?>
<!-- Generator: Adobe Illustrator 19.0.0, SVG Export Plug-In . SVG Version: 6.00 Build 0)  -->
<svg version="1.1" id="Layer_1" xmlns="http://www.w3.org/2000/svg" xmlns:xlink="http://www.w3.org/1999/xlink" x="0px" y="0px"
	 viewBox="0 0 100 100" style="enable-background:new 0 0 100 100;" xml:space="preserve">
<style type="text/css">
	.st0{fill-rule:evenodd;clip-rule:evenodd;fill:#191717;}
	.st1{fill:#191717;}
</style>
<g id="XMLID_1580_">
	<path id="XMLID_1602_" class="st0" d="M50,5.3C24.7,5.3,4.2,25.8,4.2,51.1c0,20.2,13.1,37.4,31.3,43.5c2.3,0.4,3.1-1,3.1-2.2
		c0-1.1,0-4.7-0.1-8.5c-12.7,2.8-15.4-5.4-15.4-5.4c-2.1-5.3-5.1-6.7-5.1-6.7c-4.2-2.8,0.3-2.8,0.3-2.8c4.6,0.3,7,4.7,7,4.7
		c4.1,7,10.7,5,13.3,3.8c0.4-3,1.6-5,2.9-6.1c-10.2-1.2-20.9-5.1-20.9-22.6c0-5,1.8-9.1,4.7-12.3c-0.5-1.2-2-5.8,0.4-12.1
		c0,0,3.8-1.2,12.6,4.7c3.7-1,7.6-1.5,11.5-1.5c3.9,0,7.8,0.5,11.5,1.5c8.7-5.9,12.6-4.7,12.6-4.7c2.5,6.3,0.9,11,0.4,12.1
		c2.9,3.2,4.7,7.3,4.7,12.3c0,17.6-10.7,21.5-20.9,22.6c1.6,1.4,3.1,4.2,3.1,8.5c0,6.1-0.1,11.1-0.1,12.6c0,1.2,0.8,2.6,3.1,2.2
		c18.2-6.1,31.3-23.2,31.3-43.5C95.8,25.8,75.3,5.3,50,5.3z"/>
	<path id="XMLID_1599_" class="st1" d="M21.5,71.1c-0.1,0.2-0.5,0.3-0.8,0.1c-0.3-0.1-0.5-0.5-0.4-0.7c0.1-0.2,0.5-0.3,0.8-0.1
		C21.5,70.6,21.6,70.9,21.5,71.1L21.5,71.1z M21,70.7"/>
	<path id="XMLID_1596_" class="st1" d="M23.4,73.2c-0.2,0.2-0.6,0.1-0.9-0.2c-0.3-0.3-0.4-0.7-0.1-1c0.2-0.2,0.6-0.1,0.9,0.2
		C23.6,72.5,23.6,73,23.4,73.2L23.4,73.2z M22.9,72.7"/>
	<path id="XMLID_1593_" class="st1" d="M25.2,75.8c-0.3,0.2-0.7,0-1-0.4c-0.3-0.4-0.3-0.9,0-1.1c0.3-0.2,0.7,0,1,0.4
		C25.5,75.1,25.5,75.6,25.2,75.8L25.2,75.8z M25.2,75.8"/>
	<path id="XMLID_1590_" class="st1" d="M27.7,78.4c-0.3,0.3-0.8,0.2-1.2-0.2c-0.4-0.4-0.5-0.9-0.3-1.2c0.3-0.3,0.8-0.2,1.2,0.2
		C27.8,77.6,27.9,78.1,27.7,78.4L27.7,78.4z M27.7,78.4"/>
	<path id="XMLID_1587_" class="st1" d="M31.1,79.8c-0.1,0.4-0.6,0.5-1.1,0.4c-0.5-0.2-0.9-0.6-0.8-0.9c0.1-0.4,0.6-0.5,1.1-0.4
		C30.9,79.1,31.2,79.5,31.1,79.8L31.1,79.8z M31.1,79.8"/>
	<path id="XMLID_1584_" class="st1" d="M34.8,80.1c0,0.4-0.4,0.7-1,0.7c-0.5,0-1-0.3-1-0.7c0-0.4,0.4-0.7,1-0.7
		C34.4,79.4,34.8,79.7,34.8,80.1L34.8,80.1z M34.8,80.1"/>
	<path id="XMLID_1581_" class="st1" d="M38.3,79.5c0.1,0.4-0.3,0.7-0.9,0.8c-0.5,0.1-1-0.1-1.1-0.5c-0.1-0.4,0.3-0.8,0.9-0.9
		C37.8,78.9,38.3,79.1,38.3,79.5L38.3,79.5z M38.3,79.5"/>
</g>
</svg>
