<?xml version="1.0" encoding="utf-8"?>
<!-- Generator: Adobe Illustrator 19.0.0, SVG Export Plug-In . SVG Version: 6.00 Build 0)  -->
<svg version="1.1" id="Layer_1" xmlns="http://www.w3.org/2000/svg" xmlns:xlink="http://www.w3.org/1999/xlink" x="0px" y="0px"
	 viewBox="0 0 20 20" style="enable-background:new 0 0 20 20;" xml:space="preserve">
<style type="text/css">
	.st0{fill:#FFFFFF;}
</style>
<path id="XMLID_2810_" class="st0" d="M18.9,6.9l0.3-1.7c0.1-0.3-0.2-0.6-0.5-0.6h-3.1l0.6-3.4c0.1-0.3-0.2-0.6-0.5-0.6h-1.7
	c-0.2,0-0.4,0.2-0.5,0.4L13,4.7H8.9l0.6-3.4C9.6,1,9.3,0.8,9,0.8H7.3c-0.2,0-0.4,0.2-0.5,0.4L6.2,4.7H3c-0.2,0-0.4,0.2-0.5,0.4
	L2.2,6.8C2.1,7.1,2.4,7.4,2.7,7.4h3.1l-0.9,5.3H1.5c-0.2,0-0.4,0.2-0.5,0.4l-0.3,1.7c-0.1,0.3,0.2,0.6,0.5,0.6h3.1l-0.6,3.4
	c-0.1,0.3,0.2,0.6,0.5,0.6h1.7c0.2,0,0.4-0.2,0.5-0.4L7,15.3h4.1l-0.6,3.4c-0.1,0.3,0.2,0.6,0.5,0.6h1.7c0.2,0,0.4-0.2,0.5-0.4
	l0.6-3.6H17c0.2,0,0.4-0.2,0.5-0.4l0.3-1.7c0.1-0.3-0.2-0.6-0.5-0.6h-3.1l0.9-5.3h3.3C18.7,7.4,18.9,7.2,18.9,6.9z M11.6,12.6H7.5
	l0.9-5.3h4.1L11.6,12.6z"/>
</svg>
