<?xml version="1.0" encoding="utf-8"?>
<!-- Generator: Adobe Illustrator 19.0.0, SVG Export Plug-In . SVG Version: 6.00 Build 0)  -->
<svg version="1.1" id="Layer_1" xmlns="http://www.w3.org/2000/svg" xmlns:xlink="http://www.w3.org/1999/xlink" x="0px" y="0px"
	 viewBox="0 0 20 20" style="enable-background:new 0 0 20 20;" xml:space="preserve">
<style type="text/css">
	.st0{fill:#010101;}
</style>
<path class="st0" d="M10,0C4.5,0,0,4.5,0,10c0,5.5,4.5,10,10,10s10-4.5,10-10C20,4.5,15.5,0,10,0z M10,4.4c0.9,0,1.7,0.8,1.7,1.7
	S10.9,7.8,10,7.8S8.3,7.1,8.3,6.1S9.1,4.4,10,4.4z M12.3,14.7c0,0.3-0.2,0.5-0.5,0.5H8.2c-0.3,0-0.5-0.2-0.5-0.5v-1
	c0-0.3,0.2-0.5,0.5-0.5h0.5v-2.6H8.2c-0.3,0-0.5-0.2-0.5-0.5v-1c0-0.3,0.2-0.5,0.5-0.5h2.6c0.3,0,0.5,0.2,0.5,0.5v4h0.5
	c0.3,0,0.5,0.2,0.5,0.5V14.7z"/>
</svg>
