<?xml version="1.0" encoding="utf-8"?>
<!-- Generator: Adobe Illustrator 19.0.0, SVG Export Plug-In . SVG Version: 6.00 Build 0)  -->
<svg version="1.1" id="Layer_1" xmlns="http://www.w3.org/2000/svg" xmlns:xlink="http://www.w3.org/1999/xlink" x="0px" y="0px"
	 viewBox="0 0 20 20" style="enable-background:new 0 0 20 20;" xml:space="preserve">
<style type="text/css">
	.st0{fill:#FFFFFF;}
</style>
<path id="XMLID_2806_" class="st0" d="M12.4,7.8c2,2,2,5.3,0,7.2c0,0,0,0,0,0l-2.3,2.3c-2,2-5.3,2-7.3,0c-2-2-2-5.3,0-7.3l1.3-1.3
	C4.4,8.5,5,8.7,5,9.2c0,0.6,0.1,1.2,0.3,1.8c0.1,0.2,0,0.4-0.1,0.6L4.8,12c-0.9,0.9-1,2.5,0,3.4c0.9,1,2.5,1,3.5,0l2.3-2.3
	c1-1,0.9-2.5,0-3.4c-0.1-0.1-0.3-0.2-0.3-0.3C10,9.3,9.9,9.2,9.9,9c0-0.4,0.1-0.7,0.4-1L11,7.3c0.2-0.2,0.5-0.2,0.7-0.1
	C11.9,7.4,12.2,7.6,12.4,7.8L12.4,7.8z M17.1,3c-2-2-5.3-2-7.3,0L7.6,5.3c0,0,0,0,0,0c-2,2-2,5.2,0,7.2c0.2,0.2,0.4,0.4,0.7,0.6
	c0.2,0.2,0.5,0.1,0.7-0.1l0.7-0.7c0.3-0.3,0.4-0.6,0.4-1c0-0.2-0.1-0.3-0.2-0.4c-0.1-0.1-0.2-0.2-0.3-0.3c-0.9-0.9-1-2.5,0-3.4
	L11.8,5c1-1,2.5-0.9,3.5,0c0.9,1,0.9,2.5,0,3.4l-0.4,0.4c-0.1,0.1-0.2,0.4-0.1,0.6c0.2,0.6,0.3,1.2,0.3,1.8c0,0.5,0.6,0.7,0.9,0.4
	l1.3-1.3C19.1,8.3,19.1,5,17.1,3L17.1,3z"/>
</svg>
