<?xml version="1.0" encoding="utf-8"?>
<!-- Generator: Adobe Illustrator 19.0.0, SVG Export Plug-In . SVG Version: 6.00 Build 0)  -->
<svg version="1.1" id="Layer_1" xmlns="http://www.w3.org/2000/svg" xmlns:xlink="http://www.w3.org/1999/xlink" x="0px" y="0px"
	 viewBox="0 0 100 100" style="enable-background:new 0 0 100 100;" xml:space="preserve">
<style type="text/css">
	.st0{fill:#4F4E4E;}
	.st1{fill:#3C3A3A;}
	.st2{fill:#161616;}
	.st3{fill:#191919;}
	.st4{fill:#2E2E2E;}
	.st5{fill:#343130;}
	.st6{fill:#191918;}
</style>
<g id="XMLID_1693_">
	<polygon id="XMLID_1692_" class="st0" points="24.8,98.9 2.3,86 24.8,73 	"/>
	<polygon id="XMLID_1691_" class="st1" points="24.8,98.9 47.2,86 24.8,73 	"/>
	<polygon id="XMLID_1690_" class="st2" points="24.8,73 2.3,60.1 23.6,47.8 24.8,47.1 	"/>
	<polygon id="XMLID_1684_" class="st3" points="24.8,73 47.2,60.1 24.8,47.1 	"/>
	<polygon id="XMLID_1681_" class="st4" points="47.2,86 24.8,73 47.2,60.1 	"/>
	<polygon id="XMLID_1680_" class="st4" points="2.3,86 24.8,73 2.3,60.1 	"/>
	<polygon id="XMLID_1679_" class="st0" points="75.2,98.9 52.8,86 75.2,73 	"/>
	<polygon id="XMLID_1678_" class="st1" points="75.2,98.9 97.7,86 75.2,73 	"/>
	<polygon id="XMLID_1677_" class="st2" points="75.2,73 52.8,60.1 75.2,47.1 	"/>
	<polygon id="XMLID_1676_" class="st3" points="75.2,73 97.7,60.1 75.2,47.1 	"/>
	<polygon id="XMLID_1675_" class="st4" points="97.7,86 75.2,73 97.7,60.1 	"/>
	<polygon id="XMLID_1674_" class="st4" points="52.8,86 75.2,73 52.8,60.1 	"/>
	<polygon id="XMLID_1673_" class="st0" points="50,54.8 27.6,41.8 50,28.9 	"/>
	<polygon id="XMLID_1672_" class="st1" points="50,54.8 72.4,41.8 50,28.9 	"/>
	<polygon id="XMLID_1671_" class="st2" points="50,28.9 27.6,15.9 50,3 	"/>
	<polygon id="XMLID_1670_" class="st4" points="27.6,41.8 50,28.9 27.6,15.9 	"/>
	<polygon id="XMLID_1669_" class="st5" points="61.2,9.4 61.2,22.4 50,15.9 	"/>
	<polygon id="XMLID_1668_" class="st5" points="76.7,0.6 76.7,13.6 65.5,7.1 	"/>
	<polygon id="XMLID_1667_" class="st5" points="87.9,7.1 87.9,20.1 76.7,13.6 	"/>
	<polygon id="XMLID_1666_" class="st2" points="61.2,22.4 61.2,35.3 50,28.9 	"/>
	<polygon id="XMLID_1665_" class="st4" points="72.4,28.9 72.4,41.8 61.2,35.3 	"/>
	<polygon id="XMLID_1663_" class="st2" points="76.7,13.6 76.7,0.6 87.9,7.1 	"/>
	<polygon id="XMLID_1662_" class="st0" points="76.7,26.5 76.7,13.6 87.9,20.1 	"/>
	<polygon id="XMLID_1661_" class="st6" points="61.2,35.3 61.2,22.4 72.4,28.9 	"/>
	<polygon id="XMLID_1659_" class="st5" points="50,28.9 50,15.9 61.2,22.4 	"/>
	<polygon id="XMLID_1658_" class="st3" points="50,15.9 50,3 61.2,9.4 	"/>
</g>
</svg>
