<?xml version="1.0" encoding="utf-8"?>
<!-- Generator: Adobe Illustrator 19.0.0, SVG Export Plug-In . SVG Version: 6.00 Build 0)  -->
<svg version="1.1" id="Layer_1" xmlns="http://www.w3.org/2000/svg" xmlns:xlink="http://www.w3.org/1999/xlink" x="0px" y="0px"
	 viewBox="0 0 200 200" style="enable-background:new 0 0 200 200;" xml:space="preserve">
<style type="text/css">
	.st0{opacity:0.45;enable-background:new    ;}
	.st1{opacity:0.6;enable-background:new    ;}
	.st2{opacity:0.3;enable-background:new    ;}
	.st3{opacity:0.8;enable-background:new    ;}
</style>
<g id="Swarm_Icon">
	<polygon id="XMLID_50_" class="st0" points="170.6,19.1 170.6,43 149.3,31.1 149.3,7.1 	"/>
	<polygon id="XMLID_49_" class="st1" points="149.3,31.1 149.3,55 170.6,43 170.6,19.1 	"/>
	<polygon id="XMLID_48_" class="st2" points="9.1,164.9 51.7,188.9 94.2,164.9 51.7,141 	"/>
	<polygon id="XMLID_47_" class="st0" points="51.7,141 51.7,188.9 9.1,164.9 9.1,117 	"/>
	<polygon id="XMLID_46_" class="st0" points="94.2,117 94.2,164.9 51.7,141 51.7,93.1 	"/>
	<polygon id="XMLID_45_" class="st1" points="51.7,141 51.7,188.9 94.2,164.9 94.2,117 	"/>
	<polygon id="XMLID_44_" class="st1" points="9.1,117 9.1,164.9 51.7,141 51.7,93.1 	"/>
	<polygon id="XMLID_43_" class="st3" points="98.7,60.3 120,72.3 141.3,60.3 120,48.4 	"/>
	<polygon id="XMLID_42_" class="st3" points="9.1,117 51.7,141 94.2,117 51.7,93.1 	"/>
	<polygon id="XMLID_41_" class="st2" points="104.3,164.9 146.9,188.9 189.5,164.9 146.9,141 	"/>
	<polygon id="XMLID_40_" class="st0" points="146.9,141 146.9,188.9 104.3,164.9 104.3,117 	"/>
	<polygon id="XMLID_39_" class="st0" points="189.5,117 189.5,164.9 146.9,141 146.9,93.1 	"/>
	<polygon id="XMLID_38_" class="st1" points="146.9,141 146.9,188.9 189.5,164.9 189.5,117 	"/>
	<polygon id="XMLID_37_" class="st1" points="104.3,117 104.3,164.9 146.9,141 146.9,93.1 	"/>
	<polygon id="XMLID_36_" class="st3" points="104.3,117 146.9,141 189.5,117 146.9,93.1 	"/>
	<polygon id="XMLID_35_" class="st1" points="98.7,36.4 98.7,60.3 120,48.4 120,24.4 	"/>
	<polygon id="XMLID_34_" class="st2" points="56.2,84.3 98.7,108.2 141.3,84.3 98.7,60.3 	"/>
	<polygon id="XMLID_33_" class="st0" points="98.7,60.3 98.7,108.2 56.2,84.3 56.2,36.4 	"/>
	<polygon id="XMLID_32_" class="st1" points="56.2,36.4 56.2,84.3 98.7,60.3 98.7,12.4 	"/>
	<polygon id="XMLID_31_" class="st1" points="120,72.3 120,48.4 98.7,60.3 98.7,84.3 98.7,108.2 120,96.3 141.3,84.3 141.3,60.3 	
		"/>
	<g id="XMLID_29_">
		<polygon id="XMLID_30_" class="st0" points="120,24.4 98.7,12.4 98.7,60.3 141.3,84.3 141.3,60.3 120,48.4 		"/>
	</g>
	<polygon id="XMLID_28_" class="st3" points="98.7,12.4 120,24.4 98.7,36.4 98.7,60.3 56.2,36.4 	"/>
	<polygon id="XMLID_27_" class="st3" points="128,19.1 149.3,31.1 170.6,19.1 149.3,7.1 	"/>
</g>
</svg>
