<?xml version="1.0" encoding="utf-8"?>
<!-- Generator: Adobe Illustrator 19.0.0, SVG Export Plug-In . SVG Version: 6.00 Build 0)  -->
<svg version="1.1" id="Layer_1" xmlns="http://www.w3.org/2000/svg" xmlns:xlink="http://www.w3.org/1999/xlink" x="0px" y="0px"
	 viewBox="0 0 100 100" style="enable-background:new 0 0 100 100;" xml:space="preserve">
<style type="text/css">
	.st0{fill:#4F4E4E;}
	.st1{fill:#3C3A3A;}
	.st2{fill:#161616;}
	.st3{fill:#191919;}
	.st4{fill:#2E2E2E;}
	.st5{fill:#343130;}
	.st6{fill:#191918;}
</style>
<g id="XMLID_1693_">
	<polygon id="XMLID_1692_" class="st0" points="27.8,95 7.6,83.4 27.8,71.8 	"/>
	<polygon id="XMLID_1691_" class="st1" points="27.8,95 48,83.4 27.8,71.8 	"/>
	<polygon id="XMLID_1690_" class="st2" points="27.8,71.8 7.6,60.1 27.8,48.5 	"/>
	<polygon id="XMLID_1684_" class="st3" points="27.8,71.8 48,60.1 27.8,48.5 	"/>
	<polygon id="XMLID_1681_" class="st4" points="48,83.4 27.8,71.8 48,60.1 	"/>
	<polygon id="XMLID_1680_" class="st4" points="7.6,83.4 27.8,71.8 7.6,60.1 	"/>
	<polygon id="XMLID_1679_" class="st0" points="73.2,95 53,83.4 73.2,71.8 	"/>
	<polygon id="XMLID_1678_" class="st1" points="73.2,95 93.3,83.4 73.2,71.8 	"/>
	<polygon id="XMLID_1677_" class="st2" points="73.2,71.8 53,60.1 73.2,48.5 	"/>
	<polygon id="XMLID_1676_" class="st3" points="73.2,71.8 93.3,60.1 73.2,48.5 	"/>
	<polygon id="XMLID_1675_" class="st4" points="93.3,83.4 73.2,71.8 93.3,60.1 	"/>
	<polygon id="XMLID_1674_" class="st4" points="53,83.4 73.2,71.8 53,60.1 	"/>
	<polygon id="XMLID_1673_" class="st0" points="50.5,55.3 30.3,43.7 50.5,32.1 	"/>
	<polygon id="XMLID_1672_" class="st1" points="50.5,55.3 70.7,43.7 50.5,32.1 	"/>
	<polygon id="XMLID_1671_" class="st2" points="50.5,32.1 30.3,20.4 50.5,8.8 	"/>
	<polygon id="XMLID_1670_" class="st4" points="30.3,43.7 50.5,32.1 30.3,20.4 	"/>
	<polygon id="XMLID_1669_" class="st5" points="60.6,14.6 60.6,26.2 50.5,20.4 	"/>
	<polygon id="XMLID_1668_" class="st5" points="74.5,6.7 74.5,18.3 64.4,12.5 	"/>
	<polygon id="XMLID_1667_" class="st5" points="84.6,12.5 84.6,24.1 74.5,18.3 	"/>
	<polygon id="XMLID_1666_" class="st2" points="60.6,26.2 60.6,37.9 50.5,32.1 	"/>
	<polygon id="XMLID_1665_" class="st4" points="70.7,32.1 70.7,43.7 60.6,37.9 	"/>
	<polygon id="XMLID_1663_" class="st2" points="74.5,18.3 74.5,6.7 84.6,12.5 	"/>
	<polygon id="XMLID_1662_" class="st0" points="74.5,30 74.5,18.3 84.6,24.1 	"/>
	<polygon id="XMLID_1661_" class="st6" points="60.6,37.9 60.6,26.2 70.7,32.1 	"/>
	<polygon id="XMLID_1659_" class="st5" points="50.5,32.1 50.5,20.4 60.6,26.2 	"/>
	<polygon id="XMLID_1658_" class="st3" points="50.5,20.4 50.5,8.8 60.6,14.6 	"/>
</g>
</svg>
