<?xml version="1.0" encoding="utf-8"?>
<!-- Generator: Adobe Illustrator 19.0.0, SVG Export Plug-In . SVG Version: 6.00 Build 0)  -->
<svg version="1.1" id="Layer_1" xmlns="http://www.w3.org/2000/svg" xmlns:xlink="http://www.w3.org/1999/xlink" x="0px" y="0px"
	 viewBox="0 0 100 100" style="enable-background:new 0 0 100 100;" xml:space="preserve">
<style type="text/css">
	.st0{fill:#4F4E4E;}
	.st1{fill:#3C3A3A;}
	.st2{fill:#161616;}
	.st3{fill:#191919;}
	.st4{fill:#2E2E2E;}
	.st5{fill:#343130;}
	.st6{fill:#191918;}
</style>
<polygon id="XMLID_1692_" class="st0" points="28.1,95.4 7.3,83.4 28.1,71.4 "/>
<polygon id="XMLID_1691_" class="st1" points="27.5,95.4 48.3,83.4 27.5,71.4 "/>
<polygon id="XMLID_1690_" class="st2" points="28.1,72.1 7.3,60.1 28.1,48.1 "/>
<polygon id="XMLID_1684_" class="st3" points="27.5,72.1 48.3,60.1 27.5,48.1 "/>
<polygon id="XMLID_1681_" class="st4" points="48.3,83.7 27.5,71.8 48.3,59.8 "/>
<polygon id="XMLID_1680_" class="st4" points="7.3,83.7 28.1,71.8 7.3,59.8 "/>
<polygon id="XMLID_1679_" class="st0" points="73.5,95.4 52.7,83.4 73.5,71.4 "/>
<polygon id="XMLID_1678_" class="st1" points="72.9,95.4 93.6,83.4 72.9,71.4 "/>
<polygon id="XMLID_1677_" class="st2" points="73.5,72.1 52.7,60.1 73.5,48.1 "/>
<polygon id="XMLID_1676_" class="st3" points="72.9,72.1 93.6,60.1 72.9,48.1 "/>
<polygon id="XMLID_1675_" class="st4" points="93.6,83.7 72.9,71.8 93.6,59.8 "/>
<polygon id="XMLID_1674_" class="st4" points="52.7,83.7 73.5,71.8 52.7,59.8 "/>
<polygon id="XMLID_1673_" class="st0" points="50.8,55.7 30,43.7 50.8,31.7 "/>
<polygon id="XMLID_1672_" class="st1" points="50.2,55.7 71,43.7 50.2,31.7 "/>
<polygon id="XMLID_1671_" class="st2" points="50.8,32.4 30,20.4 50.8,8.4 "/>
<polygon id="XMLID_1670_" class="st4" points="30,44 50.8,32.1 30,20.1 "/>
<polygon id="XMLID_1669_" class="st5" points="60.7,14.4 60.7,26.4 50.3,20.4 "/>
<polygon id="XMLID_1668_" class="st5" points="74.6,6.5 74.6,18.5 64.3,12.5 "/>
<polygon id="XMLID_1667_" class="st5" points="84.7,12.3 84.7,24.3 74.3,18.3 "/>
<polygon id="XMLID_1666_" class="st2" points="60.7,26.1 60.7,38.1 50.3,32.1 "/>
<polygon id="XMLID_1665_" class="st4" points="70.8,31.9 70.8,43.9 60.4,37.9 "/>
<polygon id="XMLID_1663_" class="st2" points="74.3,18.5 74.3,6.5 84.7,12.5 "/>
<polygon id="XMLID_1662_" class="st0" points="74.3,30.1 74.3,18.1 84.7,24.1 "/>
<polygon id="XMLID_1661_" class="st6" points="60.4,38.1 60.4,26.1 70.8,32.1 "/>
<polygon id="XMLID_1659_" class="st5" points="50.3,32.2 50.3,20.2 60.7,26.2 "/>
<polygon id="XMLID_1658_" class="st3" points="50.3,20.6 50.3,8.6 60.7,14.6 "/>
</svg>
