<?xml version="1.0" encoding="utf-8"?>
<!-- Generator: Adobe Illustrator 19.0.0, SVG Export Plug-In . SVG Version: 6.00 Build 0)  -->
<svg version="1.1" xmlns="http://www.w3.org/2000/svg" xmlns:xlink="http://www.w3.org/1999/xlink" x="0px" y="0px"
	 viewBox="0 0 15 20" style="enable-background:new 0 0 15 20;" xml:space="preserve">
<style type="text/css">
	.st0{fill:#FAA51A;}
	.st1{display:none;}
	.st2{display:inline;opacity:0.3;fill:#FAA51A;}
</style>
<g id="Layer_1">
	<path id="XMLID_1425_" class="st0" d="M8.8,5.3V0H0.9C0.4,0,0,0.4,0,0.9v18.1C0,19.6,0.4,20,0.9,20h13.1c0.5,0,0.9-0.4,0.9-0.9V6.2
		H9.7C9.2,6.2,8.8,5.8,8.8,5.3z M3.7,12.5h2.5V9.4c0-0.3,0.3-0.6,0.6-0.6h1.2c0.3,0,0.6,0.3,0.6,0.6v3.1h2.5c0.6,0,0.8,0.7,0.4,1.1
		L8,17.3c-0.3,0.3-0.7,0.3-0.9,0l-3.8-3.7C2.9,13.2,3.1,12.5,3.7,12.5z M14.7,4.1l-3.8-3.8C10.7,0.1,10.5,0,10.2,0H10v5h5V4.8
		C15,4.5,14.9,4.3,14.7,4.1z"/>
</g>
<g id="Layer_2" class="st1">
	<path id="XMLID_1412_" class="st2" d="M8.8,5.3V0H0.9C0.4,0,0,0.4,0,0.9v18.1C0,19.6,0.4,20,0.9,20h13.1c0.5,0,0.9-0.4,0.9-0.9V6.2
		H9.7C9.2,6.2,8.8,5.8,8.8,5.3z M11.3,13.8H8.8v3.1c0,0.3-0.3,0.6-0.6,0.6H6.9c-0.3,0-0.6-0.3-0.6-0.6v-3.1H3.7
		c-0.6,0-0.8-0.7-0.4-1.1L7,8.9c0.3-0.3,0.7-0.3,0.9,0l3.8,3.7C12.1,13.1,11.9,13.8,11.3,13.8z M14.7,4.1l-3.8-3.8
		C10.7,0.1,10.5,0,10.2,0H10v5h5V4.8C15,4.5,14.9,4.3,14.7,4.1z"/>
</g>
</svg>
