<?xml version="1.0" encoding="utf-8"?>
<!-- Generator: Adobe Illustrator 19.0.0, SVG Export Plug-In . SVG Version: 6.00 Build 0)  -->
<svg version="1.1" xmlns="http://www.w3.org/2000/svg" xmlns:xlink="http://www.w3.org/1999/xlink" x="0px" y="0px"
	 viewBox="0 0 20 20" style="enable-background:new 0 0 20 20;" xml:space="preserve">
<style type="text/css">
	.st0{display:none;}
	.st1{display:inline;fill:#FAA51A;}
	.st2{fill:#FFFFFF;}
	.st3{display:inline;opacity:0.3;fill:#FAA51A;}
</style>
<g id="Layer_1" class="st0">
	<path id="XMLID_1425_" class="st1" d="M11.3,5.3V0H3.4C2.9,0,2.5,0.4,2.5,0.9v18.1c0,0.5,0.4,0.9,0.9,0.9h13.1
		c0.5,0,0.9-0.4,0.9-0.9V6.2h-5.3C11.7,6.2,11.3,5.8,11.3,5.3z M6.2,12.5h2.5V9.4C8.7,9,9,8.7,9.4,8.7h1.2c0.3,0,0.6,0.3,0.6,0.6
		v3.1h2.5c0.6,0,0.8,0.7,0.4,1.1l-3.8,3.7c-0.3,0.3-0.7,0.3-0.9,0l-3.8-3.7C5.4,13.2,5.6,12.5,6.2,12.5z M17.2,4.1l-3.8-3.8
		C13.2,0.1,13,0,12.7,0h-0.2v5h5V4.8C17.5,4.5,17.4,4.3,17.2,4.1z"/>
</g>
<g id="Layer_3">
	<path id="XMLID_1617_" class="st2" d="M10,0C4.5,0,0,4.5,0,10s4.5,10,10,10c5.5,0,10-4.5,10-10C20,4.5,15.5,0,10,0z M9.8,17.9
		c-4.4,0-7.9-3.6-7.9-7.9c0-4.4,3.6-7.9,7.9-7.9c0.4,0,0.9,0,1.3,0.1l0,0.8c0,0.3-0.3,0.6-0.6,0.6l-1,0C9.3,3.6,9.1,3.7,9,3.9
		L8.7,4.4C8.6,4.5,8.5,4.6,8.3,4.6L7.7,4.8C7.5,4.8,7.3,5.1,7.3,5.4l0,0.2c0,0.3,0.3,0.6,0.6,0.6l3.6,0c0.2,0,0.3,0.1,0.4,0.2
		l0.3,0.3c0.1,0.1,0.3,0.2,0.4,0.2l0.4,0c0.3,0,0.6,0.3,0.6,0.6c0,0.3-0.2,0.5-0.4,0.6l-1.9,0.6c-0.2,0.1-0.3,0-0.5,0l-0.6-0.3
		c-0.3-0.2-0.6-0.2-1-0.2h0C8.8,8.1,8.3,8.2,8,8.5L6.9,9.3C6.3,9.8,6,10.4,6,11.1l0,0.6c0,0.6,0.2,1.1,0.6,1.5
		c0.4,0.4,1,0.6,1.5,0.6l1,0c0.3,0,0.6,0.3,0.6,0.6l0,1.2c0,0.5,0.1,1,0.3,1.4c0.2,0.4,0.6,0.6,1,0.6c0.4,0,0.7-0.2,0.9-0.5l0.5-0.8
		c0.3-0.4,0.6-0.8,1-1.2c0.1-0.1,0.2-0.2,0.2-0.3L14,14c0-0.1,0.1-0.2,0.1-0.3l0.7-1c0.1-0.1,0.1-0.2,0.1-0.4l0-0.5
		c0-0.3-0.3-0.6-0.6-0.6l-0.3,0c-0.2,0-0.4-0.1-0.5-0.3L13,10.2c-0.2-0.3-0.1-0.8,0.3-0.9l0.1,0c0.2-0.1,0.4,0,0.5,0.1l0.7,0.5
		c0.2,0.1,0.4,0.1,0.6,0l0.6-0.3c0.2-0.1,0.3-0.3,0.3-0.6l0-0.3c0-0.3,0.3-0.6,0.6-0.6l0.7,0c0.2,0.6,0.2,1.3,0.2,1.9
		C17.8,14.4,14.2,17.9,9.8,17.9z"/>
</g>
<g id="Layer_2" class="st0">
	<path id="XMLID_1412_" class="st3" d="M11.3,5.3V0H3.4C2.9,0,2.5,0.4,2.5,0.9v18.1c0,0.5,0.4,0.9,0.9,0.9h13.1
		c0.5,0,0.9-0.4,0.9-0.9V6.2h-5.3C11.7,6.2,11.3,5.8,11.3,5.3z M13.8,13.8h-2.5v3.1c0,0.3-0.3,0.6-0.6,0.6H9.4
		c-0.3,0-0.6-0.3-0.6-0.6v-3.1H6.2c-0.6,0-0.8-0.7-0.4-1.1l3.8-3.7c0.3-0.3,0.7-0.3,0.9,0l3.8,3.7C14.6,13.1,14.4,13.8,13.8,13.8z
		 M17.2,4.1l-3.8-3.8C13.2,0.1,13,0,12.7,0h-0.2v5h5V4.8C17.5,4.5,17.4,4.3,17.2,4.1z"/>
</g>
</svg>
